<svg width="32" height="32" viewBox="0 0 32 32" fill="none" xmlns="http://www.w3.org/2000/svg">
<path d="M26.0143 6.66289C25.1875 4.68896 23.7959 3.00338 22.0141 1.81792C20.2324 0.63246 18.1401 0 16 0C13.8599 0 11.7676 0.63246 9.98586 1.81792C8.20412 3.00338 6.81247 4.68896 5.98573 6.66289C4.20032 7.47894 2.68697 8.7908 1.6258 10.4423C0.564624 12.0939 0.000315359 14.0155 3.32881e-05 15.9786C-0.0142524 21.4357 4.57145 26.15 10.02 26.2928C11.6959 26.3333 13.3563 25.964 14.8571 25.2171V30.8643C14.8571 31.1674 14.9776 31.4581 15.1919 31.6724C15.4062 31.8867 15.6969 32.0071 16 32.0071C16.3031 32.0071 16.5938 31.8867 16.8081 31.6724C17.0224 31.4581 17.1429 31.1674 17.1429 30.8643V25.2171C18.5637 25.9225 20.128 26.2906 21.7143 26.2928H21.9743C27.4285 26.15 32.0157 21.4357 32 15.9786C31.9997 14.0155 31.4354 12.0939 30.3742 10.4423C29.313 8.7908 27.7997 7.47894 26.0143 6.66289ZM21.9214 24.0071C20.2171 24.0515 18.5431 23.5511 17.1429 22.5786V16.7214L23.3686 13.61C23.5029 13.5429 23.6227 13.4499 23.7211 13.3364C23.8194 13.223 23.8945 13.0913 23.942 12.9488C23.9895 12.8063 24.0085 12.6559 23.9978 12.5061C23.9872 12.3563 23.9471 12.2101 23.88 12.0757C23.8128 11.9414 23.7199 11.8216 23.6064 11.7232C23.493 11.6248 23.3612 11.5498 23.2188 11.5023C23.0763 11.4548 22.9259 11.4358 22.7761 11.4465C22.6263 11.4571 22.48 11.4971 22.3457 11.5643L17.1429 14.1586V10.2929C17.1429 9.98978 17.0224 9.69909 16.8081 9.48476C16.5938 9.27044 16.3031 9.15003 16 9.15003C15.6969 9.15003 15.4062 9.27044 15.1919 9.48476C14.9776 9.69909 14.8571 9.98978 14.8571 10.2929V17.5872L9.6543 14.9843C9.38302 14.8487 9.06897 14.8263 8.78124 14.9223C8.4935 15.0182 8.25565 15.2245 8.12001 15.4957C7.98438 15.767 7.96206 16.0811 8.05797 16.3688C8.15388 16.6565 8.36016 16.8944 8.63144 17.03L14.8571 20.1414V22.57C13.4572 23.5432 11.783 24.0438 10.0786 23.9986C5.84288 23.8971 2.27431 20.2243 2.28574 15.9843C2.28466 14.3897 2.7621 12.8315 3.6563 11.5112C4.55049 10.1909 5.8203 9.16932 7.30145 8.5786C7.45003 8.51894 7.58442 8.42872 7.6959 8.31379C7.80738 8.19886 7.89347 8.06179 7.94859 7.91146C8.55142 6.26059 9.64714 4.83493 11.0873 3.82764C12.5275 2.82034 14.2425 2.28009 16 2.28009C17.7575 2.28009 19.4725 2.82034 20.9127 3.82764C22.3528 4.83493 23.4486 6.26059 24.0514 7.91146C24.1065 8.06179 24.1926 8.19886 24.3041 8.31379C24.4156 8.42872 24.55 8.51894 24.6985 8.5786C26.1795 9.16965 27.4491 10.1913 28.3432 11.5115C29.2374 12.8317 29.7149 14.3898 29.7143 15.9843C29.7257 20.2243 26.1571 23.8971 21.9214 24.0071Z" fill="white"/>
</svg>
