<svg width="32" height="31" viewBox="0 0 32 31" fill="none" xmlns="http://www.w3.org/2000/svg">
<path d="M32 3.18483V0.454976L29.2701 0.151659C29.1185 0.151659 28.2085 0 26.6919 0C20.4739 0 15.9242 1.81991 13.346 5.00474C11.3744 3.79147 8.64455 3.03318 5.45972 3.03318C3.94313 3.03318 2.88152 3.18483 2.88152 3.18483L0 3.63981L0.151659 6.21801C0.303318 10.7678 2.5782 19.4123 10.4645 19.4123H10.7678V24.5687C5.00474 25.327 0.151659 27.2986 0.151659 27.2986V30.3318H30.4834V27.2986C30.4834 27.2986 25.6303 25.327 19.8673 24.5687V19.7156C29.4218 19.564 32 8.79621 32 3.18483ZM15.3175 24.2654H13.8009V15.7725C13.8009 15.7725 13.4976 10.6161 9.25118 10.6161C9.25118 10.6161 11.5261 11.8294 12.1327 16.2275C11.5261 16.3791 10.9194 16.3791 10.4645 16.3791C3.48815 16.3791 3.18483 6.21801 3.18483 6.21801C3.18483 6.21801 4.09479 6.06635 5.45972 6.06635C8.34123 6.06635 13.0427 6.67299 14.4076 10.7678C15.1659 3.94313 22.9005 3.03318 26.6919 3.03318C28.0569 3.03318 28.9668 3.18483 28.9668 3.18483C28.9668 3.18483 28.9668 16.8341 19.4123 16.8341H18.3507C18.3507 13.8009 21.3839 9.25119 21.3839 9.25119C16.8341 10.7678 16.8341 16.6825 16.8341 16.6825V24.2654H15.3175Z" fill="white"/>
</svg>
