<svg width="14" height="17" viewBox="0 0 14 17" fill="none" xmlns="http://www.w3.org/2000/svg">
<path d="M0.289808 2.2694C0.198371 2.35196 0.125138 2.45412 0.0751199 2.5689C0.0251019 2.68368 -0.000519938 2.80836 7.99557e-06 2.93441V15.1847C7.99557e-06 15.4168 0.0885076 15.6393 0.246038 15.8034C0.403569 15.9675 0.617226 16.0597 0.840007 16.0597C1.06279 16.0597 1.27645 15.9675 1.43398 15.8034C1.59151 15.6393 1.68001 15.4168 1.68001 15.1847V12.1017C3.27881 10.8534 4.627 11.4367 6.6276 12.4663C7.7637 13.0497 9.0594 13.7205 10.4636 13.7205C11.494 13.7205 12.5832 13.3603 13.7102 12.3438C13.8009 12.2619 13.8737 12.1607 13.9237 12.047C13.9737 11.9332 13.9997 11.8097 14 11.6846V2.93441C14 2.76664 13.9538 2.60239 13.8667 2.46124C13.7796 2.32009 13.6555 2.20799 13.509 2.13829C13.3625 2.06859 13.1998 2.04424 13.0404 2.06813C12.881 2.09202 12.7315 2.16315 12.6098 2.27304C10.8801 3.83423 9.4927 3.24359 7.3724 2.15054C5.40331 1.13114 2.95191 -0.132538 0.289808 2.2694ZM12.32 11.2661C10.7212 12.5152 9.373 11.9304 7.3724 10.9015C5.7512 10.0629 3.80311 9.05956 1.68001 10.0709V3.34932C3.27881 2.10095 4.627 2.6843 6.6276 3.71391C7.7637 4.29726 9.0594 4.96811 10.4636 4.96811C11.1046 4.96911 11.7381 4.82453 12.32 4.54445V11.2661Z" fill="black"/>
</svg>
