<svg width="13" height="13" viewBox="0 0 13 13" fill="none" xmlns="http://www.w3.org/2000/svg">
<path d="M0.342645 1.17971C0.264271 1.25048 0.201499 1.33805 0.158627 1.43643C0.115754 1.53481 0.0937926 1.64168 0.0942451 1.74972V12.25C0.0942451 12.4489 0.170102 12.6397 0.305128 12.7803C0.440154 12.921 0.623289 13 0.814245 13C1.0052 13 1.18834 12.921 1.32336 12.7803C1.45839 12.6397 1.53424 12.4489 1.53424 12.25V9.60742C2.90464 8.53739 4.06024 9.0374 5.77504 9.91992C6.74884 10.4199 7.85944 10.995 9.06304 10.995C9.94624 10.995 10.8798 10.6862 11.8458 9.81492C11.9236 9.74471 11.986 9.65794 12.0289 9.56048C12.0717 9.46301 12.094 9.35711 12.0942 9.24991V1.74972C12.0943 1.60592 12.0546 1.46513 11.98 1.34415C11.9054 1.22316 11.7989 1.12707 11.6733 1.06733C11.5478 1.00759 11.4084 0.986718 11.2717 1.0072C11.1351 1.02767 11.007 1.08864 10.9026 1.18284C9.42004 2.52099 8.23084 2.01473 6.41344 1.07783C4.72564 0.204062 2.62444 -0.879089 0.342645 1.17971ZM10.6542 8.89115C9.28384 9.9618 8.12824 9.46054 6.41344 8.57864C5.02384 7.85987 3.35404 6.99985 1.53424 7.86675V2.10536C2.90464 1.03533 4.06024 1.53534 5.77504 2.41787C6.74884 2.91788 7.85944 3.49289 9.06304 3.49289C9.61247 3.49375 10.1555 3.36983 10.6542 3.12976V8.89115Z" fill="#ABABAB"/>
</svg>
