<svg width="18" height="11" viewBox="0 0 18 11" fill="none" xmlns="http://www.w3.org/2000/svg">
<path d="M16.9822 3.74406L15.2873 0.552672C15.2249 0.435208 15.1385 0.33047 15.033 0.244439C14.9276 0.158407 14.8052 0.0927681 14.6728 0.0512691C14.5403 0.00977019 14.4006 -0.00677544 14.2614 0.00257717C14.1222 0.0119298 13.9863 0.0469975 13.8615 0.105778L12.2098 0.882686L8.73051 0.0163987C8.64124 -0.00546622 8.5475 -0.00546622 8.45823 0.0163987L4.97892 0.882686L3.32727 0.105778C3.20247 0.0469975 3.06659 0.0119298 2.92739 0.00257717C2.78819 -0.00677544 2.64839 0.00977019 2.51599 0.0512691C2.38358 0.0927681 2.26116 0.158407 2.15571 0.244439C2.05026 0.33047 1.96385 0.435208 1.90141 0.552672L0.20659 3.74344C0.144134 3.86089 0.106873 3.98877 0.0969358 4.11978C0.0869983 4.25079 0.104579 4.38235 0.148673 4.50697C0.192767 4.63158 0.262511 4.7468 0.353923 4.84604C0.445335 4.94528 0.556623 5.02661 0.681433 5.08537L2.47454 5.92978L6.15972 8.40676C6.21406 8.44307 6.27508 8.46956 6.3397 8.48489L10.59 9.48493C10.679 9.50594 10.7723 9.50489 10.8608 9.48189C10.9492 9.45889 11.0298 9.41472 11.0948 9.35368L13.7512 6.85357L14.7527 5.91103L16.5073 5.08537C16.7592 4.96669 16.9507 4.75874 17.0398 4.50722C17.1288 4.25571 17.1081 3.98121 16.9822 3.74406ZM13.3368 5.82977L11.0516 4.1072C10.9492 4.03004 10.8201 3.99125 10.6892 3.99828C10.5582 4.00532 10.4347 4.0577 10.3423 4.14533C9.15953 5.26663 7.84126 5.12474 7.00049 4.62472L9.87213 1.99961H11.9847L13.7917 5.40038L13.3368 5.82977ZM10.5562 8.44614L6.69633 7.53797L3.42888 5.34163L5.2884 1.84148L8.59437 1.01707L9.2452 1.17895L6.25668 3.90907L6.25137 3.91469C6.13887 4.02057 6.05307 4.14887 6.0003 4.29012C5.94753 4.43137 5.92913 4.58198 5.94647 4.73082C5.96381 4.87966 6.01644 5.02293 6.10048 5.15007C6.18451 5.27721 6.29781 5.38496 6.43201 5.46538C7.79743 6.28604 9.4451 6.15291 10.7428 5.15287L12.5791 6.54106L10.5562 8.44614ZM8.84806 10.6212C8.81936 10.7293 8.75313 10.8253 8.65989 10.8939C8.56665 10.9625 8.45174 10.9998 8.33337 11C8.28971 11 8.24622 10.995 8.20387 10.985L5.43384 10.3331C5.36912 10.3181 5.30804 10.2915 5.25387 10.255L3.50392 9.07867C3.39632 8.99916 3.32546 8.88365 3.30609 8.7562C3.28671 8.62874 3.32032 8.49917 3.39992 8.39446C3.47951 8.28974 3.59896 8.21796 3.73338 8.19406C3.86781 8.17015 4.00685 8.19597 4.12155 8.26613L5.78915 9.38743L8.46155 10.015C8.59822 10.0471 8.71571 10.1291 8.78819 10.2428C8.86068 10.3565 8.88221 10.4926 8.84806 10.6212Z" fill="#ABABAB"/>
</svg>
