<svg width="20" height="14" viewBox="0 0 20 14" fill="none" xmlns="http://www.w3.org/2000/svg">
<path d="M19.8681 4.53825L17.8742 0.669905C17.8008 0.527525 17.6991 0.40057 17.5751 0.296289C17.451 0.192009 17.307 0.112446 17.1512 0.0621444C16.9954 0.0118427 16.831 -0.00821265 16.6672 0.00312384C16.5034 0.0144603 16.3436 0.0569667 16.1967 0.128215L14.2536 1.06992L10.1603 0.0198772C10.0553 -0.00662572 9.94502 -0.00662572 9.83999 0.0198772L5.74669 1.06992L3.80357 0.128215C3.65674 0.0569667 3.49688 0.0144603 3.33312 0.00312384C3.16935 -0.00821265 3.00489 0.0118427 2.84912 0.0621444C2.69334 0.112446 2.54932 0.192009 2.42526 0.296289C2.3012 0.40057 2.19954 0.527525 2.12609 0.669905L0.132179 4.5375C0.0587008 4.67987 0.0148647 4.83487 0.00317351 4.99367C-0.00851767 5.15247 0.0121651 5.31194 0.0640407 5.46299C0.115916 5.61404 0.197968 5.75369 0.305512 5.87399C0.413055 5.99428 0.543982 6.09286 0.690817 6.16408L2.80036 7.18761L7.13586 10.19C7.19978 10.234 7.27158 10.2661 7.3476 10.2847L12.348 11.4969C12.4527 11.5224 12.5625 11.5211 12.6665 11.4932C12.7706 11.4653 12.8654 11.4118 12.9418 11.3378L16.067 8.30736L17.2453 7.16488L19.3095 6.16408C19.6058 6.02023 19.8311 5.76817 19.9359 5.4633C20.0407 5.15843 20.0163 4.8257 19.8681 4.53825ZM15.5795 7.06639L12.891 4.97843C12.7706 4.8849 12.6187 4.83787 12.4647 4.84641C12.3106 4.85494 12.1652 4.91842 12.0566 5.02464C10.6651 6.38379 9.11415 6.21181 8.12501 5.60573L11.5034 2.42377H13.9888L16.1147 6.54592L15.5795 7.06639ZM12.3082 10.2377L7.76716 9.13694L3.92311 6.4747L6.11078 2.23209L10.0002 1.23281L10.7658 1.42903L7.24994 4.73826L7.24369 4.74508C7.11134 4.87342 7.01039 5.02893 6.94831 5.20015C6.88623 5.37136 6.86458 5.55391 6.88498 5.73432C6.90538 5.91473 6.9673 6.0884 7.06616 6.24251C7.16503 6.39662 7.29832 6.52723 7.4562 6.62471C9.06258 7.61945 11.001 7.45808 12.5277 6.2459L14.688 7.92855L12.3082 10.2377ZM10.2986 12.8742C10.2648 13.0052 10.1869 13.1215 10.0772 13.2047C9.96755 13.2879 9.83235 13.3331 9.6931 13.3333C9.64174 13.3334 9.59057 13.3273 9.54074 13.3152L6.28189 12.525C6.20575 12.5067 6.13389 12.4746 6.07015 12.4303L4.01139 11.0044C3.88481 10.9081 3.80144 10.7681 3.77865 10.6136C3.75585 10.4591 3.79539 10.302 3.88904 10.1751C3.98268 10.0482 4.1232 9.96116 4.28135 9.93219C4.43949 9.90321 4.60307 9.93451 4.73802 10.0196L6.69989 11.3787L9.84389 12.1393C10.0047 12.1783 10.1429 12.2777 10.2282 12.4155C10.3135 12.5533 10.3388 12.7183 10.2986 12.8742Z" fill="white"/>
</svg>
