<svg width="47" height="44" viewBox="0 0 47 44" fill="none" xmlns="http://www.w3.org/2000/svg">
<path d="M31.7418 29.7695L31.77 27.6917L33.6505 26.0471L31.4137 26.0644L28.4642 22.8271L29.2339 26.9443L27.8949 29.2559L30.0747 28.376L31.7418 29.7695Z" stroke="white"/>
<path d="M40.9441 16.0186L41.0151 13.3332L42.2117 11.3743L39.9749 11.3916L37.3817 9.7816L37.0685 12.5647L35.9717 14.7786L38.5932 14.3108L40.9441 16.0186Z" stroke="white"/>
<path d="M11.6845 13.8863C8.28056 14.3534 6.45099 10.8245 6.91126 10.0672C6.47438 7.01602 10.1118 5.67385 11.0076 5.90507C14.5263 6.37605 15.54 7.36304 15.6471 10.4058C15.2477 12.6852 14.2897 13.4322 11.6821 14.1141M1.32008 11.8186C2.03043 20.8187 9.88049 28.0933 30.1274 42.9357C18.8906 24.0213 19.6491 14.8617 35.6258 1.43381C27.4651 4.87347 23.5283 7.20383 19.0403 12.9546C17.0729 16.492 15.7817 17.8668 12.9035 18.4576C8.19646 17.6973 5.65871 16.2594 1.32008 11.8186Z" stroke="white" stroke-width="2"/>
</svg>
