<svg width="92" height="23" viewBox="0 0 92 23" fill="none" xmlns="http://www.w3.org/2000/svg">
<path fill-rule="evenodd" clip-rule="evenodd" d="M5.62427 5.00258H1.37573L0.581251 2.19446C0.51038 1.94391 0.491059 1.67713 0.52488 1.41606C0.558701 1.155 0.644696 0.907131 0.775786 0.692857C0.906875 0.478583 1.07931 0.304032 1.2789 0.183576C1.47848 0.0631189 1.69951 0.000200463 1.92379 0H5.07621C5.30037 0.000464187 5.52123 0.0635757 5.72063 0.184144C5.92004 0.304713 6.09228 0.479295 6.22321 0.693532C6.35414 0.90777 6.44001 1.15554 6.47376 1.41648C6.5075 1.67741 6.48817 1.94405 6.41733 2.19446L5.62427 5.00258ZM0.00628197 18.768L1.37573 6.6701H5.62427L6.99372 18.768C7.00819 18.8951 6.99758 19.0244 6.9627 19.1459C6.92782 19.2673 6.86962 19.3777 6.79262 19.4684L4.00133 22.7551C3.93555 22.8327 3.85741 22.8943 3.77139 22.9363C3.68536 22.9784 3.59314 23 3.5 23C3.40686 23 3.31464 22.9784 3.22861 22.9363C3.14259 22.8943 3.06445 22.8327 2.99867 22.7551L0.20738 19.4667C0.13038 19.376 0.0721786 19.2657 0.0373006 19.1442C0.00242262 19.0227 -0.00819195 18.8934 0.00628197 18.7663V18.768Z" fill="white"/>
<path d="M18.4005 16.16C17.7072 16.16 17.0725 16.0747 16.4965 15.904C15.9312 15.7333 15.4245 15.4827 14.9765 15.152C14.5392 14.8213 14.1445 14.4213 13.7925 13.952L15.2965 12.24C15.8192 12.9653 16.3365 13.4613 16.8485 13.728C17.3712 13.984 17.9365 14.112 18.5445 14.112C18.8752 14.112 19.1685 14.0693 19.4245 13.984C19.6912 13.888 19.8992 13.7547 20.0485 13.584C20.1978 13.4133 20.2725 13.2107 20.2725 12.976C20.2725 12.8053 20.2352 12.6507 20.1605 12.512C20.0858 12.3627 19.9792 12.2347 19.8405 12.128C19.7018 12.0107 19.5365 11.9093 19.3445 11.824C19.1525 11.728 18.9392 11.648 18.7045 11.584C18.4698 11.5093 18.2138 11.4507 17.9365 11.408C17.3392 11.2693 16.8165 11.104 16.3685 10.912C15.9205 10.7093 15.5472 10.464 15.2485 10.176C14.9498 9.87733 14.7258 9.54133 14.5765 9.168C14.4378 8.79467 14.3685 8.37333 14.3685 7.904C14.3685 7.424 14.4752 6.98133 14.6885 6.576C14.9018 6.16 15.1952 5.80267 15.5685 5.504C15.9525 5.20533 16.3898 4.976 16.8805 4.816C17.3818 4.656 17.9098 4.576 18.4645 4.576C19.1472 4.576 19.7445 4.656 20.2565 4.816C20.7685 4.96533 21.2112 5.184 21.5845 5.472C21.9685 5.76 22.2885 6.112 22.5445 6.528L21.0245 8C20.8005 7.70133 20.5552 7.45067 20.2885 7.248C20.0325 7.04533 19.7498 6.896 19.4405 6.8C19.1418 6.69333 18.8325 6.64 18.5125 6.64C18.1605 6.64 17.8565 6.688 17.6005 6.784C17.3445 6.86933 17.1418 6.99733 16.9925 7.168C16.8538 7.33867 16.7845 7.54667 16.7845 7.792C16.7845 7.984 16.8325 8.15467 16.9285 8.304C17.0245 8.45333 17.1632 8.58667 17.3445 8.704C17.5258 8.81067 17.7445 8.90667 18.0005 8.992C18.2565 9.07733 18.5392 9.152 18.8485 9.216C19.4352 9.33333 19.9632 9.488 20.4325 9.68C20.9018 9.872 21.3018 10.1067 21.6325 10.384C21.9738 10.6507 22.2352 10.9707 22.4165 11.344C22.5978 11.7067 22.6885 12.1173 22.6885 12.576C22.6885 13.3333 22.5072 13.9787 22.1445 14.512C21.7818 15.0453 21.2805 15.456 20.6405 15.744C20.0005 16.0213 19.2538 16.16 18.4005 16.16ZM24.5423 16V7.536H26.7343L26.8143 10.256L26.4303 9.696C26.5583 9.25867 26.7663 8.864 27.0543 8.512C27.3423 8.14933 27.6783 7.86667 28.0623 7.664C28.4569 7.46133 28.8676 7.36 29.2943 7.36C29.4756 7.36 29.6516 7.376 29.8223 7.408C29.9929 7.44 30.1369 7.47733 30.2543 7.52L29.6463 10.016C29.5183 9.952 29.3636 9.89867 29.1823 9.856C29.0009 9.80267 28.8143 9.776 28.6223 9.776C28.3663 9.776 28.1263 9.824 27.9023 9.92C27.6889 10.0053 27.5023 10.1333 27.3423 10.304C27.1823 10.464 27.0543 10.656 26.9583 10.88C26.8729 11.104 26.8303 11.3493 26.8303 11.616V16H24.5423ZM30.5778 16.176C30.1618 16.176 29.8418 16.0587 29.6178 15.824C29.3938 15.5893 29.2818 15.2533 29.2818 14.816C29.2818 14.4213 29.3991 14.1013 29.6338 13.856C29.8791 13.6 30.1938 13.472 30.5778 13.472C30.9831 13.472 31.2978 13.5893 31.5218 13.824C31.7458 14.0587 31.8578 14.3893 31.8578 14.816C31.8578 15.2213 31.7404 15.552 31.5058 15.808C31.2711 16.0533 30.9618 16.176 30.5778 16.176ZM38.9091 16V4.8H41.1011L45.1811 11.44L43.7411 11.424L47.8691 4.8H49.9651V16H47.6131V12.16C47.6131 11.2 47.6345 10.336 47.6771 9.568C47.7305 8.8 47.8158 8.03733 47.9331 7.28L48.2211 8.032L44.9411 13.12H43.8851L40.6691 8.064L40.9411 7.28C41.0585 7.99467 41.1385 8.73067 41.1811 9.488C41.2345 10.2347 41.2611 11.1253 41.2611 12.16V16H38.9091ZM55.7259 16.16C55.0219 16.16 54.3872 15.968 53.8219 15.584C53.2565 15.2 52.8085 14.6773 52.4779 14.016C52.1472 13.3547 51.9819 12.5973 51.9819 11.744C51.9819 10.8907 52.1472 10.1387 52.4779 9.488C52.8192 8.82667 53.2779 8.30933 53.8539 7.936C54.4299 7.552 55.0859 7.36 55.8219 7.36C56.2379 7.36 56.6165 7.424 56.9579 7.552C57.3099 7.66933 57.6139 7.83467 57.8699 8.048C58.1365 8.26133 58.3605 8.50667 58.5419 8.784C58.7232 9.06133 58.8512 9.36 58.9259 9.68L58.4459 9.6V7.536H60.7019V16H58.4139V13.968L58.9259 13.92C58.8405 14.2187 58.7019 14.5013 58.5099 14.768C58.3179 15.0347 58.0779 15.2747 57.7899 15.488C57.5125 15.6907 57.1979 15.856 56.8459 15.984C56.4939 16.1013 56.1205 16.16 55.7259 16.16ZM56.3499 14.192C56.7765 14.192 57.1499 14.0907 57.4699 13.888C57.7899 13.6853 58.0352 13.4027 58.2059 13.04C58.3872 12.6667 58.4779 12.2347 58.4779 11.744C58.4779 11.264 58.3872 10.8427 58.2059 10.48C58.0352 10.1173 57.7899 9.83467 57.4699 9.632C57.1499 9.41867 56.7765 9.312 56.3499 9.312C55.9339 9.312 55.5659 9.41867 55.2459 9.632C54.9365 9.83467 54.6912 10.1173 54.5099 10.48C54.3285 10.8427 54.2379 11.264 54.2379 11.744C54.2379 12.2347 54.3285 12.6667 54.5099 13.04C54.6912 13.4027 54.9365 13.6853 55.2459 13.888C55.5659 14.0907 55.9339 14.192 56.3499 14.192ZM63.7958 16V5.392H66.0677V16H63.7958ZM62.2118 9.568V7.536H67.7958V9.568H62.2118ZM72.8785 16.16C72.0678 16.16 71.3425 15.968 70.7025 15.584C70.0625 15.2 69.5558 14.6773 69.1825 14.016C68.8198 13.3547 68.6385 12.6027 68.6385 11.76C68.6385 10.928 68.8198 10.1813 69.1825 9.52C69.5558 8.848 70.0625 8.32 70.7025 7.936C71.3425 7.552 72.0678 7.36 72.8785 7.36C73.6358 7.36 74.3292 7.49867 74.9585 7.776C75.5878 8.05333 76.0785 8.43733 76.4305 8.928L75.1825 10.432C75.0332 10.2293 74.8465 10.048 74.6225 9.888C74.3985 9.71733 74.1532 9.584 73.8865 9.488C73.6305 9.392 73.3638 9.344 73.0865 9.344C72.6492 9.344 72.2598 9.45067 71.9185 9.664C71.5878 9.86667 71.3265 10.1493 71.1345 10.512C70.9425 10.8747 70.8465 11.2907 70.8465 11.76C70.8465 12.2187 70.9425 12.6293 71.1345 12.992C71.3372 13.344 71.6092 13.632 71.9505 13.856C72.2918 14.0693 72.6758 14.176 73.1025 14.176C73.3798 14.176 73.6412 14.1387 73.8865 14.064C74.1318 13.9787 74.3612 13.856 74.5745 13.696C74.7985 13.536 75.0012 13.344 75.1825 13.12L76.4145 14.624C76.0518 15.0827 75.5505 15.456 74.9105 15.744C74.2705 16.0213 73.5932 16.16 72.8785 16.16ZM77.8704 16V4.16H80.1104V9.264L79.6624 9.456C79.7797 9.072 79.9877 8.72533 80.2864 8.416C80.5957 8.096 80.9637 7.84 81.3904 7.648C81.817 7.456 82.265 7.36 82.7344 7.36C83.3744 7.36 83.9077 7.488 84.3344 7.744C84.7717 8 85.097 8.38933 85.3104 8.912C85.5344 9.424 85.6464 10.0587 85.6464 10.816V16H83.3744V10.992C83.3744 10.608 83.321 10.288 83.2144 10.032C83.1077 9.776 82.9424 9.58933 82.7184 9.472C82.505 9.344 82.2384 9.29067 81.9184 9.312C81.6624 9.312 81.4224 9.35467 81.1984 9.44C80.985 9.51467 80.7984 9.62667 80.6384 9.776C80.489 9.92533 80.3664 10.096 80.2704 10.288C80.185 10.48 80.1424 10.688 80.1424 10.912V16H79.0224C78.777 16 78.5584 16 78.3664 16C78.1744 16 78.009 16 77.8704 16Z" fill="white"/>
</svg>
