<svg width="127" height="40" viewBox="0 0 127 40" fill="none" xmlns="http://www.w3.org/2000/svg">
<path fill-rule="evenodd" clip-rule="evenodd" d="M9.64161 8.57584H2.35839L0.996431 3.76194C0.874937 3.33242 0.841816 2.87507 0.899794 2.42754C0.957772 1.98 1.10519 1.55508 1.32992 1.18775C1.55464 0.820427 1.85025 0.521198 2.1924 0.314701C2.53454 0.108204 2.91345 0.000343651 3.29793 0H8.70207C9.08634 0.000795748 9.46496 0.108987 9.8068 0.315676C10.1486 0.522365 10.4439 0.821648 10.6684 1.18891C10.8928 1.55618 11.04 1.98093 11.0979 2.42824C11.1557 2.87556 11.1226 3.33265 11.0011 3.76194L9.64161 8.57584ZM0.0107689 32.1737L2.35839 11.4345H9.64161L11.9892 32.1737C12.014 32.3916 11.9958 32.6132 11.9361 32.8215C11.8763 33.0297 11.7765 33.2189 11.6445 33.3743L6.85942 39.0087C6.74666 39.1418 6.61271 39.2474 6.46524 39.3194C6.31776 39.3915 6.15967 39.4286 6 39.4286C5.84033 39.4286 5.68224 39.3915 5.53476 39.3194C5.38729 39.2474 5.25334 39.1418 5.14058 39.0087L0.355509 33.3715C0.22351 33.216 0.123734 33.0268 0.0639439 32.8186C0.00415325 32.6104 -0.0140438 32.3887 0.0107689 32.1709V32.1737Z" fill="black"/>
<path d="M30.0006 24.2C29.134 24.2 28.3406 24.0933 27.6206 23.88C26.914 23.6667 26.2806 23.3533 25.7206 22.94C25.174 22.5267 24.6806 22.0267 24.2406 21.44L26.1206 19.3C26.774 20.2067 27.4206 20.8267 28.0606 21.16C28.714 21.48 29.4206 21.64 30.1806 21.64C30.594 21.64 30.9606 21.5867 31.2806 21.48C31.614 21.36 31.874 21.1933 32.0606 20.98C32.2473 20.7667 32.3406 20.5133 32.3406 20.22C32.3406 20.0067 32.294 19.8133 32.2006 19.64C32.1073 19.4533 31.974 19.2933 31.8006 19.16C31.6273 19.0133 31.4206 18.8867 31.1806 18.78C30.9406 18.66 30.674 18.56 30.3806 18.48C30.0873 18.3867 29.7673 18.3133 29.4206 18.26C28.674 18.0867 28.0206 17.88 27.4606 17.64C26.9006 17.3867 26.434 17.08 26.0606 16.72C25.6873 16.3467 25.4073 15.9267 25.2206 15.46C25.0473 14.9933 24.9606 14.4667 24.9606 13.88C24.9606 13.28 25.094 12.7267 25.3606 12.22C25.6273 11.7 25.994 11.2533 26.4606 10.88C26.9406 10.5067 27.4873 10.22 28.1006 10.02C28.7273 9.82 29.3873 9.72 30.0806 9.72C30.934 9.72 31.6806 9.82 32.3206 10.02C32.9606 10.2067 33.514 10.48 33.9806 10.84C34.4606 11.2 34.8606 11.64 35.1806 12.16L33.2806 14C33.0006 13.6267 32.694 13.3133 32.3606 13.06C32.0406 12.8067 31.6873 12.62 31.3006 12.5C30.9273 12.3667 30.5406 12.3 30.1406 12.3C29.7006 12.3 29.3206 12.36 29.0006 12.48C28.6806 12.5867 28.4273 12.7467 28.2406 12.96C28.0673 13.1733 27.9806 13.4333 27.9806 13.74C27.9806 13.98 28.0406 14.1933 28.1606 14.38C28.2806 14.5667 28.454 14.7333 28.6806 14.88C28.9073 15.0133 29.1806 15.1333 29.5006 15.24C29.8206 15.3467 30.174 15.44 30.5606 15.52C31.294 15.6667 31.954 15.86 32.5406 16.1C33.1273 16.34 33.6273 16.6333 34.0406 16.98C34.4673 17.3133 34.794 17.7133 35.0206 18.18C35.2473 18.6333 35.3606 19.1467 35.3606 19.72C35.3606 20.6667 35.134 21.4733 34.6806 22.14C34.2273 22.8067 33.6006 23.32 32.8006 23.68C32.0006 24.0267 31.0673 24.2 30.0006 24.2ZM37.6778 24V13.42H40.4178L40.5178 16.82L40.0378 16.12C40.1978 15.5733 40.4578 15.08 40.8178 14.64C41.1778 14.1867 41.5978 13.8333 42.0778 13.58C42.5711 13.3267 43.0845 13.2 43.6178 13.2C43.8445 13.2 44.0645 13.22 44.2778 13.26C44.4911 13.3 44.6711 13.3467 44.8178 13.4L44.0578 16.52C43.8978 16.44 43.7045 16.3733 43.4778 16.32C43.2511 16.2533 43.0178 16.22 42.7778 16.22C42.4578 16.22 42.1578 16.28 41.8778 16.4C41.6111 16.5067 41.3778 16.6667 41.1778 16.88C40.9778 17.08 40.8178 17.32 40.6978 17.6C40.5911 17.88 40.5378 18.1867 40.5378 18.52V24H37.6778ZM45.2222 24.22C44.7022 24.22 44.3022 24.0733 44.0222 23.78C43.7422 23.4867 43.6022 23.0667 43.6022 22.52C43.6022 22.0267 43.7489 21.6267 44.0422 21.32C44.3489 21 44.7422 20.84 45.2222 20.84C45.7289 20.84 46.1222 20.9867 46.4022 21.28C46.6822 21.5733 46.8222 21.9867 46.8222 22.52C46.8222 23.0267 46.6755 23.44 46.3822 23.76C46.0889 24.0667 45.7022 24.22 45.2222 24.22ZM55.6364 24V10H58.3764L63.4764 18.3L61.6764 18.28L66.8364 10H69.4564V24H66.5164V19.2C66.5164 18 66.5431 16.92 66.5964 15.96C66.6631 15 66.7697 14.0467 66.9164 13.1L67.2764 14.04L63.1764 20.4H61.8564L57.8364 14.08L58.1764 13.1C58.3231 13.9933 58.4231 14.9133 58.4764 15.86C58.5431 16.7933 58.5764 17.9067 58.5764 19.2V24H55.6364ZM76.6573 24.2C75.7773 24.2 74.984 23.96 74.2773 23.48C73.5707 23 73.0107 22.3467 72.5973 21.52C72.184 20.6933 71.9773 19.7467 71.9773 18.68C71.9773 17.6133 72.184 16.6733 72.5973 15.86C73.024 15.0333 73.5973 14.3867 74.3173 13.92C75.0373 13.44 75.8573 13.2 76.7773 13.2C77.2973 13.2 77.7707 13.28 78.1973 13.44C78.6373 13.5867 79.0173 13.7933 79.3373 14.06C79.6707 14.3267 79.9507 14.6333 80.1773 14.98C80.404 15.3267 80.564 15.7 80.6573 16.1L80.0573 16V13.42H82.8773V24H80.0173V21.46L80.6573 21.4C80.5507 21.7733 80.3773 22.1267 80.1373 22.46C79.8973 22.7933 79.5973 23.0933 79.2373 23.36C78.8907 23.6133 78.4973 23.82 78.0573 23.98C77.6173 24.1267 77.1507 24.2 76.6573 24.2ZM77.4373 21.74C77.9707 21.74 78.4373 21.6133 78.8373 21.36C79.2373 21.1067 79.544 20.7533 79.7573 20.3C79.984 19.8333 80.0973 19.2933 80.0973 18.68C80.0973 18.08 79.984 17.5533 79.7573 17.1C79.544 16.6467 79.2373 16.2933 78.8373 16.04C78.4373 15.7733 77.9707 15.64 77.4373 15.64C76.9173 15.64 76.4573 15.7733 76.0573 16.04C75.6707 16.2933 75.364 16.6467 75.1373 17.1C74.9107 17.5533 74.7973 18.08 74.7973 18.68C74.7973 19.2933 74.9107 19.8333 75.1373 20.3C75.364 20.7533 75.6707 21.1067 76.0573 21.36C76.4573 21.6133 76.9173 21.74 77.4373 21.74ZM86.7447 24V10.74H89.5847V24H86.7447ZM84.7647 15.96V13.42H91.7447V15.96H84.7647ZM98.0981 24.2C97.0848 24.2 96.1781 23.96 95.3781 23.48C94.5781 23 93.9448 22.3467 93.4781 21.52C93.0248 20.6933 92.7981 19.7533 92.7981 18.7C92.7981 17.66 93.0248 16.7267 93.4781 15.9C93.9448 15.06 94.5781 14.4 95.3781 13.92C96.1781 13.44 97.0848 13.2 98.0981 13.2C99.0448 13.2 99.9115 13.3733 100.698 13.72C101.485 14.0667 102.098 14.5467 102.538 15.16L100.978 17.04C100.791 16.7867 100.558 16.56 100.278 16.36C99.9981 16.1467 99.6915 15.98 99.3581 15.86C99.0381 15.74 98.7048 15.68 98.3581 15.68C97.8115 15.68 97.3248 15.8133 96.8981 16.08C96.4848 16.3333 96.1581 16.6867 95.9181 17.14C95.6781 17.5933 95.5581 18.1133 95.5581 18.7C95.5581 19.2733 95.6781 19.7867 95.9181 20.24C96.1715 20.68 96.5115 21.04 96.9381 21.32C97.3648 21.5867 97.8448 21.72 98.3781 21.72C98.7248 21.72 99.0515 21.6733 99.3581 21.58C99.6648 21.4733 99.9515 21.32 100.218 21.12C100.498 20.92 100.751 20.68 100.978 20.4L102.518 22.28C102.065 22.8533 101.438 23.32 100.638 23.68C99.8381 24.0267 98.9915 24.2 98.0981 24.2ZM104.338 24V9.2H107.138V15.58L106.578 15.82C106.725 15.34 106.985 14.9067 107.358 14.52C107.745 14.12 108.205 13.8 108.738 13.56C109.271 13.32 109.831 13.2 110.418 13.2C111.218 13.2 111.885 13.36 112.418 13.68C112.965 14 113.371 14.4867 113.638 15.14C113.918 15.78 114.058 16.5733 114.058 17.52V24H111.218V17.74C111.218 17.26 111.151 16.86 111.018 16.54C110.885 16.22 110.678 15.9867 110.398 15.84C110.131 15.68 109.798 15.6133 109.398 15.64C109.078 15.64 108.778 15.6933 108.498 15.8C108.231 15.8933 107.998 16.0333 107.798 16.22C107.611 16.4067 107.458 16.62 107.338 16.86C107.231 17.1 107.178 17.36 107.178 17.64V24H105.778C105.471 24 105.198 24 104.958 24C104.718 24 104.511 24 104.338 24Z" fill="black"/>
</svg>
