<svg width="21" height="14" viewBox="0 0 21 14" fill="none" xmlns="http://www.w3.org/2000/svg">
<path d="M1.70328 8.09375V8.099C1.67377 8.21015 1.62262 8.3144 1.55275 8.40579C1.48288 8.49718 1.39565 8.57392 1.29607 8.63161C1.19649 8.68931 1.08649 8.72684 0.972381 8.74205C0.858267 8.75726 0.742272 8.74985 0.631026 8.72025C-0.124104 8.52075 0.00905124 7.651 0.00905124 7.651L0.0405882 7.5425C0.0405882 7.5425 0.0861412 7.3955 0.122934 7.28875C0.572545 6.0296 1.23443 4.85653 2.07997 3.82025C3.65155 1.90575 6.29538 0 10.4915 0C14.6877 0 17.3315 1.90575 18.9048 3.82025C19.7504 4.85653 20.4123 6.0296 20.8619 7.28875C20.8996 7.39696 20.9346 7.50607 20.967 7.616L20.9722 7.63875V7.64575L20.974 7.64925C21.0296 7.87197 20.9953 8.10757 20.8786 8.30529C20.7619 8.50301 20.572 8.647 20.35 8.70622C20.128 8.76545 19.8916 8.73517 19.6917 8.62191C19.4918 8.50865 19.3445 8.32148 19.2815 8.10075L19.2798 8.09375L19.2658 8.05L19.2044 7.85925C18.8226 6.79617 18.2627 5.80558 17.5487 4.92975C16.2487 3.346 14.0745 1.75 10.4915 1.75C6.9086 1.75 4.73606 3.346 3.43429 4.92975C2.72034 5.80558 2.16049 6.79617 1.77861 7.85925L1.71729 8.05L1.70328 8.09375ZM6.11142 9.625C6.11142 8.46468 6.57289 7.35188 7.39432 6.53141C8.21575 5.71094 9.32985 5.25 10.4915 5.25C11.6532 5.25 12.7673 5.71094 13.5887 6.53141C14.4102 7.35188 14.8716 8.46468 14.8716 9.625C14.8716 10.7853 14.4102 11.8981 13.5887 12.7186C12.7673 13.5391 11.6532 14 10.4915 14C9.32985 14 8.21575 13.5391 7.39432 12.7186C6.57289 11.8981 6.11142 10.7853 6.11142 9.625Z" fill="#3A8A88"/>
</svg>
