<svg width="32" height="32" viewBox="0 0 32 32" fill="none" xmlns="http://www.w3.org/2000/svg">
<path d="M21 0L32 5.5V17.7656L30 16.7656V7.73438L22 11.7344V15.7656L20 16.7656V11.7344L12 7.73438V11.2812L10 10.2812V5.5L21 0ZM21 10L23.7656 8.60938L16.5312 4.46875L13.2344 6.125L21 10ZM25.9219 7.54688L28.7656 6.125L21 2.23438L18.6719 3.40625L25.9219 7.54688ZM18 17.7656L16 18.7656V18.75L10 21.75V28.8594L16 25.8438V28.0938L9 31.5938L0 27.0781V16.5156L9 12.0156L18 16.5156V17.7656ZM8 28.8594V21.75L2 18.75V25.8438L8 28.8594ZM9 20.0156L14.7656 17.1406L9 14.25L3.23438 17.1406L9 20.0156ZM18 20L25 16.5L32 20V28.2344L25 31.7344L18 28.2344V20ZM24 29V24.2344L20 22.2344V27L24 29ZM30 27V22.2344L26 24.2344V29L30 27ZM25 22.5L28.7656 20.6094L25 18.7344L21.2344 20.6094L25 22.5Z" fill="white"/>
</svg>
