<svg width="24" height="23" viewBox="0 0 24 23" fill="none" xmlns="http://www.w3.org/2000/svg">
<path d="M9.99578 1.04107C10.1499 0.728591 10.3884 0.465476 10.6842 0.281492C10.9801 0.097508 11.3215 0 11.67 0C12.0184 0 12.3598 0.097508 12.6557 0.281492C12.9515 0.465476 13.19 0.728591 13.3441 1.04107L15.9388 6.29574L21.7394 7.13807C22.0843 7.18814 22.4082 7.33373 22.6746 7.55837C22.941 7.783 23.1391 8.07771 23.2467 8.40914C23.3543 8.74057 23.3669 9.09549 23.2832 9.43373C23.1995 9.77198 23.0228 10.08 22.7731 10.3231L18.5755 14.4134L19.5671 20.1907C19.6261 20.5339 19.5879 20.8867 19.4569 21.2094C19.3259 21.532 19.1072 21.8115 18.8257 22.0164C18.5441 22.2212 18.2108 22.3433 17.8636 22.3687C17.5163 22.394 17.1688 22.3218 16.8605 22.1601L11.6688 19.4301L6.47945 22.1601C6.17108 22.3218 5.82362 22.394 5.47634 22.3687C5.12906 22.3433 4.79581 22.2212 4.51424 22.0164C4.23268 21.8115 4.01402 21.532 3.883 21.2094C3.75197 20.8867 3.7138 20.5339 3.77278 20.1907L4.76212 14.4134L0.56445 10.3231C0.314699 10.0799 0.138029 9.77164 0.0544499 9.43322C-0.0291294 9.0948 -0.0162787 8.73974 0.0915466 8.40825C0.199372 8.07676 0.397863 7.78209 0.664541 7.5576C0.931219 7.33311 1.25543 7.18778 1.60045 7.13807L7.40112 6.29807L9.99578 1.04107Z" fill="#FAA635"/>
</svg>
