<svg width="12" height="14" viewBox="0 0 12 14" fill="none" xmlns="http://www.w3.org/2000/svg">
<path d="M0.248407 2.07278C0.170032 2.14355 0.107261 2.23112 0.0643885 2.3295C0.0215159 2.42788 -0.000445661 2.53475 6.85335e-06 2.64279V13.143C6.85335e-06 13.342 0.0758636 13.5327 0.21089 13.6734C0.345916 13.814 0.529051 13.8931 0.720006 13.8931C0.910962 13.8931 1.0941 13.814 1.22912 13.6734C1.36415 13.5327 1.44001 13.342 1.44001 13.143V10.5005C2.81041 9.43046 3.966 9.93047 5.6808 10.813C6.6546 11.313 7.7652 11.888 8.9688 11.888C9.852 11.888 10.7856 11.5793 11.7516 10.708C11.8294 10.6378 11.8918 10.551 11.9346 10.4535C11.9775 10.3561 11.9998 10.2502 12 10.143V2.64279C12 2.49898 11.9604 2.3582 11.8857 2.23722C11.8111 2.11623 11.7047 2.02014 11.5791 1.9604C11.4535 1.90066 11.3141 1.87978 11.1775 1.90026C11.0408 1.92074 10.9127 1.98171 10.8084 2.0759C9.3258 3.41406 8.1366 2.9078 6.3192 1.9709C4.6314 1.09713 2.53021 0.0139772 0.248407 2.07278ZM10.56 9.78422C9.1896 10.8549 8.034 10.3536 6.3192 9.47171C4.9296 8.75294 3.2598 7.89292 1.44001 8.75982V2.99842C2.81041 1.9284 3.966 2.42841 5.6808 3.31093C6.6546 3.81094 7.7652 4.38596 8.9688 4.38596C9.51823 4.38682 10.0612 4.26289 10.56 4.02283V9.78422Z" fill="#ABABAB"/>
</svg>
